<svg width="42" height="42" viewBox="0 0 42 42" xmlns="http://www.w3.org/2000/svg"><path d="M29.9 23.863c-1.542 0-2.79-1.25-2.79-2.79 0-1.542 1.248-2.79 2.79-2.79 1.54 0 2.79 1.248 2.79 2.79 0 1.54-1.25 2.79-2.79 2.79m-8.84 0c-1.54 0-2.79-1.25-2.79-2.79 0-1.542 1.25-2.79 2.79-2.79 1.542 0 2.792 1.248 2.792 2.79 0 1.54-1.25 2.79-2.79 2.79m-8.838 0c-1.54 0-2.79-1.25-2.79-2.79 0-1.542 1.25-2.79 2.79-2.79s2.79 1.248 2.79 2.79c0 1.54-1.25 2.79-2.79 2.79M30.054 9H11.946C5.376 9 0 14.377 0 20.95c0 6.57 5.376 11.948 11.947 11.948h12.907L30.97 39v-6.14C37.116 32.385 42 27.21 42 20.95 42 14.376 36.624 9 30.053 9" fill="#FFF" fill-rule="evenodd"/></svg>